<?xml version="1.0" encoding="utf-8"?>
<!-- Generator: Adobe Illustrator 27.3.1, SVG Export Plug-In . SVG Version: 6.00 Build 0)  -->
<svg version="1.1" id="Layer_1" xmlns="http://www.w3.org/2000/svg" xmlns:xlink="http://www.w3.org/1999/xlink" x="0px" y="0px"
	 viewBox="0 0 1366 768" style="enable-background:new 0 0 1366 768;" xml:space="preserve">
<style type="text/css">
	.st0{fill:#16443E;}
	.st1{fill:none;stroke:#16443E;stroke-width:9;stroke-miterlimit:10;}
	.st2{fill:none;stroke:#FFFFFF;stroke-width:7;stroke-miterlimit:10;}
</style>
<g>
	<g>
		<path class="st0" d="M740.15,383.94c0,31.46-25.5,56.95-56.95,56.95s-56.95-25.5-56.95-56.95s25.5-56.96,56.95-56.96
			S740.15,352.48,740.15,383.94z"/>
		<path class="st1" d="M740.15,383.94c0,31.46-25.5,56.95-56.95,56.95s-56.95-25.5-56.95-56.95s25.5-56.96,56.95-56.96
			S740.15,352.48,740.15,383.94z"/>
		<path class="st0" d="M740.15,383.94c0,31.46-25.5,56.95-56.95,56.95s-56.95-25.5-56.95-56.95s25.5-56.96,56.95-56.96
			S740.15,352.48,740.15,383.94z"/>
	</g>
	<g>
		<path class="st2" d="M651.62,343.68c-0.73-0.73-0.21-1.98,0.82-1.98h40.62c5.73,0,11.45,2.69,15.06,8.11
			c4.03,6.05,3.89,14.34-0.35,20.24c-6.69,9.31-19.7,10.1-27.44,2.35L651.62,343.68z"/>
		<path class="st2" d="M649.25,367.77c15.3,37.3,52.25,32.1,52.25,32.1"/>
		<path class="st2" d="M649.25,423.57c0-0.55,0-58.86,0-58.86"/>
		<path class="st2" d="M690.84,377.67l10.45,0.09c5.19,0.05,10.08,2.39,13.38,6.39l0,0c5.98,7.28,7.8,17.12,4.81,26.05l-0.94,2.81
			c0,0,0,0,0,0v0c-2.29,5.87-2.29,5.87-10.12,9.53l-23.32-0.12H645.5"/>
	</g>
</g>
</svg>
