<?xml version="1.0" encoding="utf-8"?>
<!-- Generator: Adobe Illustrator 27.3.1, SVG Export Plug-In . SVG Version: 6.00 Build 0)  -->
<svg version="1.1" id="Layer_1" xmlns="http://www.w3.org/2000/svg" xmlns:xlink="http://www.w3.org/1999/xlink" x="0px" y="0px"
	 viewBox="0 0 612 792" style="enable-background:new 0 0 612 792;" xml:space="preserve">
<style type="text/css">
	.st0{fill:none;stroke:#17443F;stroke-width:0.5;stroke-miterlimit:10;}
	.st1{display:none;}
	.st2{display:inline;fill:none;stroke:#17443F;stroke-width:7;stroke-miterlimit:10;}
	.st3{fill:#17443F;stroke:#17443F;stroke-width:0.5;stroke-miterlimit:10;}
	.st4{font-family:'Rockwell';}
	.st5{font-size:44.933px;}
	.st6{display:none;fill:#17443F;stroke:#17443F;stroke-width:0.5;stroke-miterlimit:10;}
	.st7{font-family:'OCRAExtended';}
	.st8{font-size:15.3126px;}
</style>
<path class="st0" d="M119.18,148.11"/>
<g class="st1">
	<path class="st2" d="M214.55,361.77c-0.74-0.74-0.22-2.01,0.83-2.01h41.17c5.8,0,11.61,2.72,15.27,8.22
		c4.09,6.13,3.95,14.53-0.35,20.52c-6.78,9.44-19.96,10.24-27.82,2.38L214.55,361.77z"/>
	<path class="st2" d="M212.16,386.19c15.51,37.8,52.96,32.54,52.96,32.54"/>
	<path class="st2" d="M212.16,442.76c0-0.56,0-59.66,0-59.66"/>
	<path class="st2" d="M254.3,396.23l10.59,0.1c5.26,0.05,10.22,2.42,13.56,6.48l0,0c6.07,7.37,7.91,17.35,4.88,26.41l-0.95,2.85
		c0,0,0,0,0,0v0c-2.32,5.95-2.32,5.95-10.25,9.66l-23.64-0.13h-40.13"/>
</g>
<g>
	<text transform="matrix(1 0 0 1 224.9273 407.7139)" class="st3 st4 st5">BotaniQ</text>
	<text transform="matrix(1 0 0 1 167.5181 430.4581)" class="st6 st7 st8">WHERE TECHNOLOGY MEETS NATURE</text>
</g>
</svg>
